<?xml version="1.0" encoding="UTF-8" standalone="no"?>
<!-- Created with Inkscape (http://www.inkscape.org/) -->

<svg
   xmlns:dc="http://purl.org/dc/elements/1.1/"
   xmlns:cc="http://creativecommons.org/ns#"
   xmlns:rdf="http://www.w3.org/1999/02/22-rdf-syntax-ns#"
   xmlns:svg="http://www.w3.org/2000/svg"
   xmlns="http://www.w3.org/2000/svg"
   xmlns:sodipodi="http://sodipodi.sourceforge.net/DTD/sodipodi-0.dtd"
   xmlns:inkscape="http://www.inkscape.org/namespaces/inkscape"
   id="svg3390"
   version="1.1"
   inkscape:version="0.91 r13725"
   width="512.5"
   height="386.25"
   viewBox="0 0 512.5 386.25"
   sodipodi:docname="Logo.svg">
  <metadata
     id="metadata3396">
    <rdf:RDF>
      <cc:Work
         rdf:about="">
        <dc:format>image/svg+xml</dc:format>
        <dc:type
           rdf:resource="http://purl.org/dc/dcmitype/StillImage" />
        <dc:title></dc:title>
      </cc:Work>
    </rdf:RDF>
  </metadata>
  <defs
     id="defs3394" />
  <sodipodi:namedview
     pagecolor="#ffffff"
     bordercolor="#666666"
     borderopacity="1"
     objecttolerance="10"
     gridtolerance="10"
     guidetolerance="10"
     inkscape:pageopacity="0"
     inkscape:pageshadow="2"
     inkscape:window-width="1285"
     inkscape:window-height="668"
     id="namedview3392"
     showgrid="false"
     inkscape:zoom="1.2084206"
     inkscape:cx="256.25"
     inkscape:cy="193.125"
     inkscape:window-x="0"
     inkscape:window-y="1"
     inkscape:window-maximized="0"
     inkscape:current-layer="svg3390" />
  <path
     style="fill:#000000"
     d="m 224.66432,384.3781 c -21.05931,-3.42396 -47.3239,-12.80224 -65.13155,-23.25645 -18.8974,-11.09398 -41.38044,-30.2535 -55.03477,-46.89936 l -3.20133,-3.90272 -10.083039,1.8582 -10.083035,1.8582 -5.877797,-3.88465 c -12.884717,-8.51555 -15.587993,-9.28186 -26.92631,-7.63287 -22.842818,3.32214 -22.227843,3.37562 -27.432826,-2.38568 C 18.263876,297.22191 15.119422,295 13.629765,295 8.5759089,295 -0.6312581,281.90131 0.2316839,275.93905 c 0.273691,-1.89099 3.121765,-4.25293 9.364172,-7.76578 10.5592711,-5.94213 14.3623001,-9.30086 18.4724501,-16.31429 2.822939,-4.81698 3.77665,-5.3944 14.042661,-8.50214 6.057718,-1.83379 13.967158,-3.94838 17.576533,-4.69909 7.544106,-1.56908 7.365641,-0.9539 4.6875,-16.15775 -4.478891,-25.42672 -1.413311,-62.25241 7.429419,-89.24688 C 89.560837,79.047581 133.51992,32.694071 185.85041,12.995143 c 93.15918,-35.068207 196.30695,3.618312 242.13863,90.816307 18.99363,36.13674 26.33486,81.39032 19.55495,120.54265 -1.3076,7.55101 -2.27429,13.79085 -2.14821,13.86631 0.12607,0.0755 5.94954,1.06593 12.94105,2.20105 6.9915,1.13513 14.1108,2.59575 15.82066,3.24584 1.70985,0.65009 5.11373,4.20249 7.56416,7.89422 4.90322,7.38702 11.10262,12.32527 22.96585,18.29387 7.3627,3.7043 7.8125,4.18432 7.8125,8.3374 0,8.28827 -9.37744,21.77315 -15.18901,21.84198 -1.61479,0.0191 -5.17421,1.72799 -7.90984,3.79748 -4.72466,3.5742 -5.38856,3.72184 -13.2524,2.94695 -11.13324,-1.09704 -19.53241,0.91129 -29.11109,6.96077 -8.91035,5.62739 -12.28822,6.00584 -29.93312,3.35363 l -9.77045,-1.4686 -14.60455,14.44525 c -27.20993,26.91316 -56.39143,43.06997 -93.97954,52.03331 -11.17694,2.66528 -16.8356,3.19859 -38.125,3.59321 -17.6847,0.32781 -28.20723,-0.058 -35.96068,-1.31867 z M 289.375,360.01179 c 30.79764,-6.35746 57.76585,-19.81004 81.11261,-40.46144 l 8.6126,-7.6183 -7.3626,-1.44581 c -4.04944,-0.79519 -10.03449,-1.82687 -13.30011,-2.29262 -3.26563,-0.46575 -5.93378,-1.23421 -5.92921,-1.70771 0.005,-0.4735 5.64372,-6.11727 12.53148,-12.54171 l 12.52322,-11.6808 9.65601,1.3584 c 5.3108,0.74711 15.22066,2.16215 22.02192,3.14453 12.68673,1.83246 16.36716,1.39446 19.44498,-2.31409 2.59496,-3.12674 0.44552,-4.28263 -10.96427,-5.89618 -12.49334,-1.76678 -14.94031,-3.16042 -12.74648,-7.25962 1.44667,-2.70314 2.05962,-2.8325 9.94736,-2.09941 8.309,0.77223 56.44755,8.56596 62.67024,10.14642 2.25274,0.57216 3.74622,0.18051 4.97985,-1.30594 1.56696,-1.88806 1.2898,-2.48527 -2.50276,-5.39285 -2.34569,-1.79831 -6.09395,-4.98628 -8.32949,-7.08438 -4.38201,-4.11262 -2.46211,-3.71489 -57.99035,-12.0135 -9.28125,-1.38707 -17.04989,-2.69304 -17.26364,-2.90217 -0.21375,-0.20911 0.8318,-4.39821 2.32344,-9.3091 l 2.71206,-8.9289 7.67658,0.89353 c 13.55446,1.5777 12.29181,2.49494 14.86718,-10.80014 3.08949,-15.94917 2.41627,-48.97064 -1.33792,-65.625 -7.0377,-31.22067 -21.49198,-57.963359 -43.71415,-80.878049 -33.42314,-34.46472 -75.14128,-52.24695 -122.57438,-52.24695 -43.40168,0 -80.82676,14.16461 -114.706,43.41381 -19.07737,16.47021 -37.67272,44.609839 -46.704553,70.676199 -8.782005,25.34535 -11.669858,59.42075 -7.054125,83.23558 C 89.088521,226.82341 90,231.82174 90,232.18299 c 0,0.36125 2.390625,0.3029 5.3125,-0.12969 2.921875,-0.43258 8.96875,-1.32891 13.4375,-1.99186 11.55456,-1.71415 65.42001,-6.31144 73.9498,-6.31144 3.93396,0 7.49611,0.55571 7.91587,1.23491 0.41978,0.67922 -1.1289,4.47609 -3.4415,8.4375 l -4.20472,7.20259 -10.54723,0.95803 c -56.59289,5.14044 -98.36247,11.19346 -118.476908,17.16899 -11.827162,3.51359 -13.285482,4.31005 -20.147287,11.00358 -5.184431,5.05729 -7.083715,7.72312 -6.349153,8.91168 1.265375,2.04741 5.372759,1.51912 23.801128,-3.06133 7.21875,-1.79426 21,-4.88302 30.625,-6.86395 15.706163,-3.23248 17.788295,-3.4137 20.3125,-1.76801 3.07746,2.00638 3.66714,4.85027 1.30803,6.30829 -0.82747,0.51139 -6.030591,1.81022 -11.562505,2.88627 C 84.695428,277.57637 81.875,278.65077 81.875,280 c 0,2.7551 7.213991,2.97572 20.17054,0.61689 34.208,-6.22782 68.64119,-11.75118 73.7322,-11.82725 2.16773,-0.0324 2.80332,0.93166 3.47637,5.27286 0.453,2.92187 2.02505,9.15876 3.49345,13.85975 2.11309,6.76492 2.33626,8.7534 1.07025,9.53584 -0.87976,0.54372 -8.70805,1.92916 -17.39619,3.07873 -8.68815,1.14959 -20.7185,2.74844 -26.73412,3.553 -6.01563,0.80458 -10.9375,1.85228 -10.9375,2.32822 0,2.10476 21.7133,20.80125 32.57615,28.05006 23.32672,15.566 51.32341,25.63626 79.29885,28.5234 10.7037,1.10465 36.64521,-0.48095 48.75,-2.97971 z M 241.25,335.06231 c -31.58893,-5.96343 -52.5,-30.63345 -52.5,-61.93731 0,-33.7625 24.97039,-61.42528 62.77841,-69.54739 15.38037,-3.30409 43.19688,-4.36894 62.19934,-2.38107 12.87086,1.34642 15.67096,1.29227 21.54987,-0.41678 7.51041,-2.18334 16.03078,-7.7991 19.22163,-12.66896 2.94751,-4.49848 1.47725,-5.09512 -5.02441,-2.03899 -9.90528,4.65603 -14.31108,5.02506 -36.64443,3.06935 -13.39158,-1.17267 -27.17068,-1.56745 -38.1747,-1.0937 -20.08105,0.86455 -18.99838,1.60732 -19.0181,-13.04746 -0.0235,-17.4957 7.29657,-32.05474 20.23983,-40.25524 7.6059,-4.81888 8.76237,-7.9312 2.56006,-6.88966 -2.23438,0.37521 -5.04688,1.0715 -6.25,1.54729 -3.14054,1.24197 -2.819,-1.9893 0.93518,-9.3978 4.00116,-7.89591 9.28624,-13.8887 14.92809,-16.92703 8.99273,-4.842909 2.11082,-6.373919 -7.23018,-1.60849 -11.10302,5.66433 -18.41377,14.894 -23.49443,29.66118 -1.30104,3.78154 -3.44916,8.029 -4.77361,9.43881 -7.25315,7.72063 -12.02849,27.57035 -10.55216,43.86227 l 0.81048,8.944 -3.83997,0.768 c -6.61648,1.32328 -24.2868,10.61133 -31.96134,16.79983 -4.04595,3.26252 -8.04446,6.44254 -8.88557,7.06674 -1.02157,0.7581 -3.14285,-0.14287 -6.38915,-2.71366 -12.44259,-9.85341 -26.68872,-12.70993 -42.3053,-8.48271 -6.4523,1.74655 -8.49447,1.86452 -10.87437,0.62818 -8.69913,-4.51911 -27.48246,-22.44236 -33.55623,-32.0197 -5.21394,-8.22152 -4.96696,-12.96051 1.16259,-22.30743 10.05579,-15.33402 40.33008,-43.74108 53.46492,-50.16736 5.54417,-2.71251 9.32835,-3.464669 21.36794,-4.247199 15.79746,-1.02677 18.5273,-1.84185 39.65586,-11.84052 33.95536,-16.06868 43.94965,-19.20067 64.57455,-20.23623 29.87717,-1.5001 51.37557,7.25705 72.75712,29.63687 21.69029,22.702969 33.28915,47.413139 37.8735,80.685519 2.0289,14.72539 2.02737,16.4037 -0.0289,31.49184 -3.71204,27.2381 -9.43924,43.48194 -21.74405,61.67176 -15.8537,23.436 -36.77491,42.13967 -58.91923,52.67405 -11.04078,5.25227 -12.74637,5.85893 -27.66328,9.83947 -10.50913,2.80433 -36.93429,4.19817 -46.25,2.43953 z m 14.80772,-32.09926 3.73976,-4.53695 6.46901,2.32623 c 6.26377,2.25241 6.52203,2.2537 8.14041,0.0405 2.18726,-2.99126 1.13199,-5.44989 -3.32936,-7.75696 -4.12752,-2.13441 -3.89477,-2.9539 3.1384,-11.04991 l 4.24725,-4.8891 8.5809,3.55124 c 4.7195,1.95317 9.01892,3.91627 9.55426,4.36244 0.53534,0.44617 -0.2624,2.38222 -1.77275,4.30233 -2.07189,2.63396 -2.43143,3.99086 -1.46438,5.52665 2.24958,3.57258 5.49635,3.06286 10.28685,-1.61494 4.32153,-4.21986 4.88109,-4.42146 8.63752,-3.11196 3.06093,1.06705 4.45655,1.03512 5.86552,-0.13424 2.68783,-2.23068 2.2658,-5.6456 -0.96361,-7.79738 l -2.8125,-1.874 4.31064,-6.09097 c 5.49552,-7.76522 5.74053,-7.90808 10.86545,-6.3352 3.47456,1.06637 4.65945,0.9444 6.24686,-0.64301 2.15412,-2.15412 1.31942,-7.22435 -1.19469,-7.2569 -4.74812,-0.0615 -4.81046,-2.13184 -0.33194,-11.025 2.46328,-4.8914 4.47868,-9.75125 4.47868,-10.79966 0,-3.50456 -3.51519,-1.95838 -6.32314,2.7813 -5.79106,9.775 -9.07482,14.0625 -10.77036,14.0625 -2.48,0 -21.6565,-8.89898 -21.6565,-10.04983 0,-0.52356 1.37627,-3.92248 3.0584,-7.55317 1.68212,-3.63069 2.77392,-7.06154 2.42622,-7.62413 -1.54465,-2.4993 -4.42747,-0.58535 -6.83596,4.53849 -4.1162,8.75684 -4.78754,8.90733 -13.57085,3.04206 -6.00074,-4.00713 -8.08695,-4.83952 -9.2282,-3.68196 -1.53221,1.55413 0.75263,4.09494 10.1872,11.32854 l 4.07585,3.125 -7.01374,9.6875 c -3.85755,5.32807 -7.2246,9.68745 -7.48232,9.68745 -1.87114,0 -21.8666,-10.18475 -21.8666,-11.13783 0,-0.66358 2.24209,-5.31966 4.98241,-10.34684 5.54718,-10.17638 6.03074,-12.27029 2.83009,-12.25463 -1.35706,0.006 -4.25572,3.36305 -7.63549,8.84123 -2.9964,4.85678 -6.19983,9.11902 -7.11875,9.47164 -0.91891,0.35263 -4.19367,-1.09467 -7.27722,-3.21622 -6.43798,-4.42944 -8.28104,-4.78324 -8.28104,-1.58966 0,1.24722 2.53125,4.16426 5.625,6.48231 3.09375,2.31805 5.625,4.43407 5.625,4.70226 0,0.85169 -11.36778,15.29774 -12.03798,15.29774 -0.35301,0 -3.13031,-1.45834 -6.17175,-3.24074 -4.98605,-2.92201 -5.61015,-3.03164 -6.3458,-1.11456 -0.5676,1.47912 0.38185,3.06356 3.11982,5.20634 3.76098,2.94341 5.28227,6.64896 2.72968,6.64896 -2.33262,0 -3.97171,4.83225 -2.54397,7.5 1.88038,3.5135 5.19815,3.1097 9.25682,-1.12665 l 3.47456,-3.62665 8.00931,5.10617 c 4.40512,2.8084 8.00931,5.67524 8.00931,6.37075 0,0.69552 -1.492,2.8219 -3.31556,4.72529 -2.76904,2.89025 -3.05288,3.77721 -1.72195,5.38089 2.7302,3.28969 7.0704,2.26607 11.09524,-2.61675 z M 247.8125,283.38969 C 243.51562,281.28197 240,278.99509 240,278.30771 c 0,-1.70217 8.92946,-14.55771 10.11179,-14.55771 0.52043,0 5.22776,2.30941 10.46071,5.13204 10.58159,5.70763 10.46746,4.93353 2.05376,13.93046 -2.411,2.57812 -4.9726,4.62493 -5.69245,4.54845 -0.71985,-0.0765 -4.82444,-1.86355 -9.12131,-3.97126 z m 44.9201,-8.95139 c -4.34083,-1.61229 -8.17357,-3.21261 -8.51724,-3.55626 -0.70642,-0.70644 10.50819,-17.54665 12.08229,-18.14313 0.56039,-0.21235 3.16954,0.96548 5.79811,2.6174 2.62859,1.65191 6.91064,4.00958 9.51569,5.23924 2.60505,1.22966 4.5738,2.71259 4.375,3.29539 -0.1988,0.5828 -2.60035,3.88325 -5.3368,7.33435 -5.70056,7.18932 -6.71953,7.37206 -17.91705,3.21301 z M 159.19132,142.01587 c 9.9457,-2.87955 9.00974,-8.0347 -1.98883,-10.95425 -5.39674,-1.43255 -6.22204,-1.34851 -9.29619,0.94669 -3.69579,2.7593 -6.06725,8.21631 -4.89646,11.26733 0.80183,2.08955 6.0151,1.68368 16.18148,-1.25977 z"
     id="path3400"
     inkscape:connector-curvature="0" />
</svg>
